<svg width="199" height="54" viewBox="0 0 199 54" fill="none" xmlns="http://www.w3.org/2000/svg">
<g filter="url(#filter0_d_362_384)">
<path fill-rule="evenodd" clip-rule="evenodd" d="M50 23C50 35.6698 39.7356 46 27 46C14.2644 46 4 35.6698 4 23C4 10.3302 14.2644 0 27 0C39.7356 0 50 10.3302 50 23ZM27 44.4161C38.8098 44.4161 48.3836 34.8278 48.3836 23C48.3836 11.1722 38.8098 1.58393 27 1.58393C15.1902 1.58393 5.6164 11.1722 5.6164 23C5.6164 34.8278 15.1902 44.4161 27 44.4161Z" fill="url(#paint0_linear_362_384)"/>
<path fill-rule="evenodd" clip-rule="evenodd" d="M41.1893 20.9843C41.1893 23.9059 38.1692 26.2743 34.4437 26.2743C30.7182 26.2743 27.6981 23.9059 27.6981 20.9843C27.6981 18.0628 30.7182 15.6943 34.4437 15.6943C38.1692 15.6943 41.1893 18.0628 41.1893 20.9843ZM23.1118 35.3065H45.7761C45.7761 35.3063 45.7761 35.306 45.7761 35.3057C45.8349 30.4312 40.8088 26.4337 34.55 26.377C28.2913 26.3203 23.17 30.2259 23.1112 35.1003C23.1104 35.1693 23.1106 35.238 23.1118 35.3065Z" fill="#3A75C4"/>
<path fill-rule="evenodd" clip-rule="evenodd" d="M33.8648 20.9843C33.8648 23.9059 30.8506 26.2743 27.1324 26.2743C23.4142 26.2743 20.4 23.9059 20.4 20.9843C20.4 18.0628 23.4142 15.6943 27.1324 15.6943C30.8506 15.6943 33.8648 18.0628 33.8648 20.9843ZM15.8227 35.3065H38.4426C38.4426 35.3063 38.4426 35.306 38.4426 35.3057C38.5013 30.4312 33.485 26.4337 27.2386 26.377C20.9921 26.3203 15.8808 30.2259 15.8222 35.1003C15.8213 35.1693 15.8215 35.238 15.8227 35.3065Z" fill="#FCD116"/>
<path fill-rule="evenodd" clip-rule="evenodd" d="M26.7005 20.9843C26.7005 23.9059 23.6804 26.2743 19.9549 26.2743C16.2294 26.2743 13.2093 23.9059 13.2093 20.9843C13.2093 18.0628 16.2294 15.6943 19.9549 15.6943C23.6804 15.6943 26.7005 18.0628 26.7005 20.9843ZM8.623 35.3065H31.2873C31.2873 35.3063 31.2873 35.306 31.2874 35.3057C31.3461 30.4312 26.32 26.4337 20.0613 26.377C13.8025 26.3203 8.68121 30.2259 8.62246 35.1003C8.62163 35.1693 8.62181 35.238 8.623 35.3065Z" fill="#009E60"/>
</g>
<path d="M66.4258 16.7031H68.7988L71.875 25.8525L74.9424 16.7031H77.3154L72.833 29.5H70.9082L66.4258 16.7031ZM65.0547 16.7031H67.4717L67.9199 26.1865V29.5H65.0547V16.7031ZM76.2695 16.7031H78.6953V29.5H75.8213V26.1865L76.2695 16.7031ZM91.4922 22.8203V23.3916C91.4922 24.3643 91.3574 25.2373 91.0879 26.0107C90.8242 26.7842 90.4463 27.4434 89.9541 27.9883C89.4678 28.5332 88.8877 28.9521 88.2139 29.2451C87.5459 29.5322 86.8047 29.6758 85.9902 29.6758C85.1758 29.6758 84.4316 29.5322 83.7578 29.2451C83.084 28.9521 82.498 28.5332 82 27.9883C81.5078 27.4434 81.127 26.7842 80.8574 26.0107C80.5879 25.2373 80.4531 24.3643 80.4531 23.3916V22.8203C80.4531 21.8477 80.5879 20.9746 80.8574 20.2012C81.127 19.4219 81.5049 18.7598 81.9912 18.2148C82.4834 17.6699 83.0664 17.2539 83.7402 16.9668C84.4141 16.6738 85.1582 16.5273 85.9727 16.5273C86.7871 16.5273 87.5312 16.6738 88.2051 16.9668C88.8789 17.2539 89.459 17.6699 89.9453 18.2148C90.4375 18.7598 90.8184 19.4219 91.0879 20.2012C91.3574 20.9746 91.4922 21.8477 91.4922 22.8203ZM88.6006 23.3916V22.8027C88.6006 22.1523 88.542 21.5781 88.4248 21.0801C88.3076 20.5762 88.1377 20.1543 87.915 19.8145C87.6924 19.4746 87.417 19.2197 87.0889 19.0498C86.7607 18.874 86.3887 18.7861 85.9727 18.7861C85.5391 18.7861 85.1611 18.874 84.8389 19.0498C84.5166 19.2197 84.2441 19.4746 84.0215 19.8145C83.8047 20.1543 83.6377 20.5762 83.5205 21.0801C83.4092 21.5781 83.3535 22.1523 83.3535 22.8027V23.3916C83.3535 24.0361 83.4092 24.6104 83.5205 25.1143C83.6377 25.6123 83.8076 26.0342 84.0303 26.3799C84.2529 26.7256 84.5254 26.9863 84.8477 27.1621C85.1758 27.3379 85.5566 27.4258 85.9902 27.4258C86.4062 27.4258 86.7754 27.3379 87.0977 27.1621C87.4258 26.9863 87.7012 26.7256 87.9238 26.3799C88.1465 26.0342 88.3135 25.6123 88.4248 25.1143C88.542 24.6104 88.6006 24.0361 88.6006 23.3916ZM100.255 16.7031H103.12V25.1055C103.12 26.1016 102.909 26.9395 102.487 27.6191C102.071 28.2988 101.491 28.8115 100.747 29.1572C100.003 29.5029 99.1416 29.6758 98.1631 29.6758C97.1787 29.6758 96.3115 29.5029 95.5615 29.1572C94.8174 28.8115 94.2314 28.2988 93.8037 27.6191C93.3818 26.9395 93.1709 26.1016 93.1709 25.1055V16.7031H96.0449V25.1055C96.0449 25.6562 96.127 26.1074 96.291 26.459C96.4609 26.8047 96.7041 27.0596 97.0205 27.2236C97.3369 27.3818 97.7178 27.4609 98.1631 27.4609C98.6084 27.4609 98.9863 27.3818 99.2969 27.2236C99.6133 27.0596 99.8506 26.8047 100.009 26.459C100.173 26.1074 100.255 25.6562 100.255 25.1055V16.7031ZM108.033 16.7031V29.5H105.168V16.7031H108.033ZM115.68 16.7031L110.67 23.1016L107.752 26.2656L107.233 23.6025L109.158 20.8428L112.164 16.7031H115.68ZM112.357 29.5L108.824 23.6553L111.004 21.959L115.75 29.5H112.357ZM125.348 27.2852V29.5H118.536V27.2852H125.348ZM119.512 16.7031V29.5H116.646V16.7031H119.512ZM124.469 21.8535V23.998H118.536V21.8535H124.469ZM125.356 16.7031V18.9268H118.536V16.7031H125.356ZM135.104 27.2852V29.5H128.644V27.2852H135.104ZM129.619 16.7031V29.5H126.754V16.7031H129.619ZM142.003 19.1377L138.698 29.5H135.64L140.377 16.7031H142.311L142.003 19.1377ZM144.745 29.5L141.432 19.1377L141.089 16.7031H143.049L147.804 29.5H144.745ZM144.604 24.7363V26.9512H137.934V24.7363H144.604ZM159.985 26.125C159.985 25.9082 159.953 25.7148 159.889 25.5449C159.824 25.3691 159.707 25.208 159.537 25.0615C159.367 24.915 159.127 24.7686 158.816 24.6221C158.506 24.4697 158.099 24.3145 157.595 24.1562C157.021 23.9688 156.473 23.7578 155.951 23.5234C155.436 23.2832 154.976 23.0049 154.571 22.6885C154.167 22.3721 153.848 22.0029 153.613 21.5811C153.385 21.1592 153.271 20.667 153.271 20.1045C153.271 19.5596 153.391 19.0674 153.631 18.6279C153.871 18.1885 154.208 17.8135 154.642 17.5029C155.075 17.1865 155.585 16.9463 156.171 16.7822C156.757 16.6123 157.401 16.5273 158.104 16.5273C159.042 16.5273 159.865 16.6943 160.574 17.0283C161.289 17.3564 161.846 17.8193 162.244 18.417C162.643 19.0088 162.842 19.6973 162.842 20.4824H159.994C159.994 20.1367 159.921 19.832 159.774 19.5684C159.634 19.2988 159.417 19.0879 159.124 18.9355C158.837 18.7832 158.477 18.707 158.043 18.707C157.621 18.707 157.267 18.7715 156.979 18.9004C156.698 19.0234 156.484 19.1934 156.338 19.4102C156.197 19.627 156.127 19.8643 156.127 20.1221C156.127 20.3271 156.18 20.5146 156.285 20.6846C156.396 20.8486 156.555 21.0039 156.76 21.1504C156.971 21.291 157.229 21.4258 157.533 21.5547C157.838 21.6836 158.187 21.8066 158.579 21.9238C159.265 22.1406 159.871 22.3809 160.398 22.6445C160.932 22.9082 161.38 23.207 161.743 23.541C162.106 23.875 162.379 24.2529 162.561 24.6748C162.748 25.0967 162.842 25.5742 162.842 26.1074C162.842 26.6758 162.73 27.1797 162.508 27.6191C162.291 28.0586 161.975 28.4336 161.559 28.7441C161.148 29.0488 160.656 29.2803 160.082 29.4385C159.508 29.5967 158.866 29.6758 158.157 29.6758C157.513 29.6758 156.877 29.5938 156.25 29.4297C155.623 29.2598 155.055 29.002 154.545 28.6562C154.041 28.3105 153.637 27.8711 153.332 27.3379C153.033 26.7988 152.884 26.1602 152.884 25.4219H155.749C155.749 25.8086 155.805 26.1367 155.916 26.4062C156.027 26.6699 156.186 26.8838 156.391 27.0479C156.602 27.2119 156.856 27.3291 157.155 27.3994C157.454 27.4697 157.788 27.5049 158.157 27.5049C158.585 27.5049 158.931 27.4463 159.194 27.3291C159.464 27.2061 159.663 27.0391 159.792 26.8281C159.921 26.6172 159.985 26.3828 159.985 26.125ZM170.488 16.7031V29.5H167.632V16.7031H170.488ZM174.382 16.7031V18.9268H163.817V16.7031H174.382ZM186.221 22.8203V23.3916C186.221 24.3643 186.086 25.2373 185.816 26.0107C185.553 26.7842 185.175 27.4434 184.683 27.9883C184.196 28.5332 183.616 28.9521 182.942 29.2451C182.274 29.5322 181.533 29.6758 180.719 29.6758C179.904 29.6758 179.16 29.5322 178.486 29.2451C177.812 28.9521 177.227 28.5332 176.729 27.9883C176.236 27.4434 175.855 26.7842 175.586 26.0107C175.316 25.2373 175.182 24.3643 175.182 23.3916V22.8203C175.182 21.8477 175.316 20.9746 175.586 20.2012C175.855 19.4219 176.233 18.7598 176.72 18.2148C177.212 17.6699 177.795 17.2539 178.469 16.9668C179.143 16.6738 179.887 16.5273 180.701 16.5273C181.516 16.5273 182.26 16.6738 182.934 16.9668C183.607 17.2539 184.188 17.6699 184.674 18.2148C185.166 18.7598 185.547 19.4219 185.816 20.2012C186.086 20.9746 186.221 21.8477 186.221 22.8203ZM183.329 23.3916V22.8027C183.329 22.1523 183.271 21.5781 183.153 21.0801C183.036 20.5762 182.866 20.1543 182.644 19.8145C182.421 19.4746 182.146 19.2197 181.817 19.0498C181.489 18.874 181.117 18.7861 180.701 18.7861C180.268 18.7861 179.89 18.874 179.567 19.0498C179.245 19.2197 178.973 19.4746 178.75 19.8145C178.533 20.1543 178.366 20.5762 178.249 21.0801C178.138 21.5781 178.082 22.1523 178.082 22.8027V23.3916C178.082 24.0361 178.138 24.6104 178.249 25.1143C178.366 25.6123 178.536 26.0342 178.759 26.3799C178.981 26.7256 179.254 26.9863 179.576 27.1621C179.904 27.3379 180.285 27.4258 180.719 27.4258C181.135 27.4258 181.504 27.3379 181.826 27.1621C182.154 26.9863 182.43 26.7256 182.652 26.3799C182.875 26.0342 183.042 25.6123 183.153 25.1143C183.271 24.6104 183.329 24.0361 183.329 23.3916ZM193.023 25.0527H189.807V22.8291H193.023C193.498 22.8291 193.879 22.75 194.166 22.5918C194.459 22.4336 194.673 22.2168 194.808 21.9414C194.948 21.6602 195.019 21.3438 195.019 20.9922C195.019 20.6289 194.948 20.292 194.808 19.9814C194.673 19.665 194.459 19.4102 194.166 19.2168C193.879 19.0234 193.498 18.9268 193.023 18.9268H190.844V29.5H187.979V16.7031H193.023C194.043 16.7031 194.916 16.8877 195.643 17.2568C196.375 17.626 196.935 18.1328 197.321 18.7773C197.714 19.416 197.91 20.1484 197.91 20.9746C197.91 21.8008 197.714 22.5186 197.321 23.1279C196.935 23.7373 196.375 24.2119 195.643 24.5518C194.916 24.8857 194.043 25.0527 193.023 25.0527Z" fill="url(#paint1_linear_362_384)"/>
<defs>
<filter id="filter0_d_362_384" x="0" y="0" width="54" height="54" filterUnits="userSpaceOnUse" color-interpolation-filters="sRGB">
<feFlood flood-opacity="0" result="BackgroundImageFix"/>
<feColorMatrix in="SourceAlpha" type="matrix" values="0 0 0 0 0 0 0 0 0 0 0 0 0 0 0 0 0 0 127 0" result="hardAlpha"/>
<feOffset dy="4"/>
<feGaussianBlur stdDeviation="2"/>
<feComposite in2="hardAlpha" operator="out"/>
<feColorMatrix type="matrix" values="0 0 0 0 0 0 0 0 0 0 0 0 0 0 0 0 0 0 0.25 0"/>
<feBlend mode="normal" in2="BackgroundImageFix" result="effect1_dropShadow_362_384"/>
<feBlend mode="normal" in="SourceGraphic" in2="effect1_dropShadow_362_384" result="shape"/>
</filter>
<linearGradient id="paint0_linear_362_384" x1="48.3836" y1="23" x2="5.6164" y2="23" gradientUnits="userSpaceOnUse">
<stop offset="0.025" stop-color="#3A75C4"/>
<stop offset="0.455" stop-color="#FCD116"/>
<stop offset="1" stop-color="#009E60"/>
</linearGradient>
<linearGradient id="paint1_linear_362_384" x1="64" y1="23" x2="199" y2="23" gradientUnits="userSpaceOnUse">
<stop offset="0.48" stop-color="white"/>
</linearGradient>
</defs>
</svg>
