<svg width="189" height="181" viewBox="0 0 189 181" fill="none" xmlns="http://www.w3.org/2000/svg">
<g filter="url(#filter0_d_490_21)">
<path fill-rule="evenodd" clip-rule="evenodd" d="M184.091 86.0552C184.091 133.46 144.026 172.11 94.3154 172.11C44.6047 172.11 4.53979 133.46 4.53979 86.0552C4.53979 38.6507 44.6047 0 94.3154 0C144.026 0 184.091 38.6507 184.091 86.0552ZM94.3154 166.184C140.413 166.184 177.782 130.309 177.782 86.0552C177.782 41.8012 140.413 5.92632 94.3154 5.92632C48.2182 5.92632 10.8491 41.8012 10.8491 86.0552C10.8491 130.309 48.2182 166.184 94.3154 166.184Z" fill="url(#paint0_linear_490_21)"/>
<path fill-rule="evenodd" clip-rule="evenodd" d="M149.701 78.5134C149.701 89.4446 137.912 98.3061 123.371 98.3061C108.829 98.3061 97.0405 89.4446 97.0405 78.5134C97.0405 67.5822 108.829 58.7207 123.371 58.7207C137.912 58.7207 149.701 67.5822 149.701 78.5134ZM79.1389 132.1H167.604C167.604 132.099 167.604 132.098 167.604 132.097C167.834 113.859 148.215 98.9024 123.786 98.6903C99.3561 98.4781 79.3661 113.091 79.1368 131.329C79.1335 131.587 79.1342 131.844 79.1389 132.1Z" fill="#3A75C4"/>
<path fill-rule="evenodd" clip-rule="evenodd" d="M121.11 78.5134C121.11 89.4446 109.345 98.3061 94.8317 98.3061C80.3185 98.3061 68.5533 89.4446 68.5533 78.5134C68.5533 67.5822 80.3185 58.7207 94.8317 58.7207C109.345 58.7207 121.11 67.5822 121.11 78.5134ZM50.6867 132.1H138.979C138.979 132.099 138.979 132.098 138.979 132.097C139.208 113.859 119.628 98.9024 95.2461 98.6903C70.8643 98.4781 50.9135 113.091 50.6846 131.329C50.6814 131.587 50.6821 131.844 50.6867 132.1Z" fill="#FCD116"/>
<path fill-rule="evenodd" clip-rule="evenodd" d="M93.1462 78.5134C93.1462 89.4446 81.3578 98.3061 66.8161 98.3061C52.2744 98.3061 40.4861 89.4446 40.4861 78.5134C40.4861 67.5822 52.2744 58.7207 66.8161 58.7207C81.3578 58.7207 93.1462 67.5822 93.1462 78.5134ZM22.5844 132.1H111.05C111.05 132.099 111.05 132.098 111.05 132.097C111.279 113.859 91.661 98.9024 67.2313 98.6903C42.8017 98.4781 22.8116 113.091 22.5823 131.329C22.5791 131.587 22.5798 131.844 22.5844 132.1Z" fill="#009E60"/>
</g>
<defs>
<filter id="filter0_d_490_21" x="0.539795" y="0" width="187.551" height="180.11" filterUnits="userSpaceOnUse" color-interpolation-filters="sRGB">
<feFlood flood-opacity="0" result="BackgroundImageFix"/>
<feColorMatrix in="SourceAlpha" type="matrix" values="0 0 0 0 0 0 0 0 0 0 0 0 0 0 0 0 0 0 127 0" result="hardAlpha"/>
<feOffset dy="4"/>
<feGaussianBlur stdDeviation="2"/>
<feComposite in2="hardAlpha" operator="out"/>
<feColorMatrix type="matrix" values="0 0 0 0 0 0 0 0 0 0 0 0 0 0 0 0 0 0 0.25 0"/>
<feBlend mode="normal" in2="BackgroundImageFix" result="effect1_dropShadow_490_21"/>
<feBlend mode="normal" in="SourceGraphic" in2="effect1_dropShadow_490_21" result="shape"/>
</filter>
<linearGradient id="paint0_linear_490_21" x1="177.782" y1="86.0552" x2="10.8491" y2="86.0552" gradientUnits="userSpaceOnUse">
<stop offset="0.025" stop-color="#3A75C4"/>
<stop offset="0.455" stop-color="#FCD116"/>
<stop offset="1" stop-color="#009E60"/>
</linearGradient>
</defs>
</svg>
